<?xml version="1.0" encoding="utf-8"?>
<!-- Generator: Adobe Illustrator 25.0.1, SVG Export Plug-In . SVG Version: 6.00 Build 0)  -->
<svg version="1.1" id="Ebene_1" xmlns="http://www.w3.org/2000/svg" xmlns:xlink="http://www.w3.org/1999/xlink" x="0px" y="0px"
	 viewBox="0 0 396.9 175.7" style="enable-background:new 0 0 396.9 175.7;" xml:space="preserve">
<style type="text/css">
	.Grün_x0020_bogenförmig{fill:url(#SVGID_1_);stroke:#FFFFFF;stroke-width:0.25;stroke-miterlimit:1;}
	.st0{fill:#CA4941;}
	.st1{fill:#1D1D1B;}
</style>
<linearGradient id="SVGID_1_" gradientUnits="userSpaceOnUse" x1="0" y1="270.1396" x2="0.7071" y2="269.4325">
	<stop  offset="0" style="stop-color:#1DA238"/>
	<stop  offset="0.9831" style="stop-color:#24391D"/>
</linearGradient>
<g>
	<path class="st0" d="M24.8,169.7c11.9,17,69.5-3,128.7-44.7c1.4-1,2.7-1.9,4.1-2.9c-1.9,1.3-3.8,2.5-5.8,3.7
		c-52.6,33-104.1,45.5-115,27.9c-4.7-7.5-1.2-19.2,8.4-32.9C26.8,142.2,18.4,160.4,24.8,169.7"/>
	<path class="st0" d="M394.7,6.1c-11.9-17-69.5,3-128.7,44.7c-1.4,1-2.7,1.9-4.1,2.9c1.9-1.3,3.8-2.5,5.8-3.7
		c52.6-33,104.1-45.5,115-27.9c4.7,7.5,1.2,19.2-8.4,32.9C392.8,33.6,401.1,15.3,394.7,6.1"/>
	<path class="st1" d="M155.8,144h-6.1v-2.2h15v2.2h-6.2v18.1h-2.6V144z M179.8,152.6H172v7.3h8.8v2.2h-11.4v-20.3h10.9v2.2H172v6.4
		h7.8V152.6z M200.7,161.5c-0.9,0.5-2.9,1-5.3,1c-5.7,0-10-3.6-10-10.3c0-6.4,4.3-10.7,10.6-10.7c2.5,0,4.1,0.5,4.8,0.9l-0.7,2.1
		c-1-0.5-2.4-0.8-4-0.8c-4.7,0-7.9,3-7.9,8.4c0,5,2.9,8.2,7.7,8.2c1.6,0,3.2-0.3,4.3-0.8L200.7,161.5z M209.2,141.8v8.5h9.8v-8.5
		h2.6v20.3h-2.6v-9.5h-9.8v9.5h-2.6v-20.3H209.2z M228.6,162.1v-20.3h2.9l6.4,10.3c1.5,2.4,2.7,4.5,3.6,6.6l0.1,0
		c-0.2-2.7-0.3-5.2-0.3-8.4v-8.5h2.5v20.3h-2.6l-6.4-10.3c-1.4-2.3-2.8-4.6-3.8-6.8l-0.1,0c0.2,2.6,0.2,5,0.2,8.4v8.7H228.6z
		 M268.1,151.7c0,7-4.2,10.7-9.4,10.7c-5.4,0-9.1-4.2-9.1-10.3c0-6.5,4-10.7,9.4-10.7C264.6,141.4,268.1,145.7,268.1,151.7z
		 M252.4,152c0,4.4,2.3,8.3,6.5,8.3c4.1,0,6.5-3.8,6.5-8.4c0-4.1-2.1-8.3-6.5-8.3C254.6,143.6,252.4,147.6,252.4,152z M274,141.8
		h2.6v18.1h8.6v2.2H274V141.8z M306.8,151.7c0,7-4.2,10.7-9.4,10.7c-5.4,0-9.1-4.2-9.1-10.3c0-6.5,4-10.7,9.4-10.7
		C303.2,141.4,306.8,145.7,306.8,151.7z M291.1,152c0,4.4,2.3,8.3,6.5,8.3c4.1,0,6.5-3.8,6.5-8.4c0-4.1-2.1-8.3-6.4-8.3
		C293.3,143.6,291.1,147.6,291.1,152z M328.1,161.2c-1.2,0.5-3.5,1.1-6.2,1.1c-3.1,0-5.6-0.8-7.6-2.7c-1.7-1.7-2.8-4.4-2.8-7.6
		c0-6.1,4.2-10.5,10.9-10.5c2.3,0,4.2,0.5,5.1,0.9l-0.7,2.1c-1.1-0.5-2.4-0.9-4.5-0.9c-4.9,0-8.1,3.1-8.1,8.2c0,5.2,3.1,8.2,7.8,8.2
		c1.7,0,2.9-0.2,3.5-0.5v-6.1h-4.1v-2.1h6.7V161.2z M337.2,141.8v20.3h-2.6v-20.3H337.2z M354.8,152.6h-7.8v7.3h8.8v2.2h-11.4v-20.3
		h10.9v2.2h-8.3v6.4h7.8V152.6z M361.3,158.9c1.2,0.8,2.8,1.3,4.6,1.3c2.7,0,4.2-1.4,4.2-3.5c0-1.9-1.1-3-3.8-4
		c-3.3-1.2-5.3-3-5.3-5.8c0-3.2,2.6-5.5,6.5-5.5c2,0,3.6,0.5,4.4,1l-0.7,2.1c-0.6-0.4-2-1-3.8-1c-2.8,0-3.8,1.7-3.8,3
		c0,1.9,1.2,2.8,4,3.9c3.4,1.3,5.1,3,5.1,6c0,3.1-2.3,5.9-7,5.9c-2,0-4.1-0.6-5.2-1.3L361.3,158.9z"/>
	<path class="st1" d="M374.2,84.7h-22.6v10.7h9.4v12.8c-1.1,0.5-3.6,0.8-6.7,0.8c-11.2,0-19.2-7.3-19.2-19.9
		c0-13.3,8.7-19.7,20.2-19.7c6.7,0,10.7,1.1,14,2.6l2.9-11.1c-3-1.4-9-2.9-16.8-2.9c-19.9,0-34.6,11.5-34.7,31.8
		c0,8.9,3.1,16.9,8.5,22.2c5.6,5.3,13.6,8.1,24.7,8.1c8,0,16-2,20.3-3.4V84.7z M276.3,119.5v-18.3c0-9.9-0.2-18.5-0.6-26.6h0.4
		c2.9,7.1,6.9,15,10.5,21.5l13,23.5h14.4V58.7h-12.6v17.7c0,9.2,0.3,17.4,1.1,25.4h-0.2c-2.8-6.9-6.3-14.4-9.9-20.8l-12.6-22.3h-16
		v60.8H276.3z M238.8,119.5h13.7V58.7h-13.7V119.5z M184.5,119.5l5.8-26.2c1.4-6.1,2.4-11.9,3.5-18.8h0.2c0.7,6.9,1.7,12.6,2.9,18.8
		l5.1,26.2h14.8l15.7-60.8h-14l-5,24.8c-1.3,7.3-2.6,14.4-3.5,21.2h-0.2c-0.9-6.8-1.9-13.3-3.2-20.4l-4.9-25.6h-14.6l-5.1,24.8
		c-1.5,7.6-3,14.9-4,21.5H178c-1-6.1-2.3-14-3.6-21.3l-4.6-25h-14.7l14.4,60.8H184.5z M98.7,58.7v60.8h13.7V94.1h22.6v25.4h13.7
		V58.7h-13.7v23.4h-22.6V58.7H98.7z M90.5,107c-2.8,1.2-7.3,2-11.5,2c-12.2,0-19.4-7.7-19.4-19.9c0-13.5,8.5-20.1,19.3-20.1
		c5,0,8.8,1.1,11.5,2.3l2.9-10.8c-2.4-1.4-7.8-2.7-14.9-2.7C60,57.8,45.2,69.2,45.2,90c0,17.3,10.8,30.5,31.8,30.5
		c7.3,0,13-1.4,15.5-2.6L90.5,107z M0,116.6c3.4,1.9,10.3,3.8,17.2,3.8c16.6,0,24.4-8.7,24.4-18.9c0-8.6-5-14.2-15.7-18.1
		c-7.9-3-11.2-4.7-11.2-8.6c0-3.1,2.9-5.9,8.8-5.9c5.9,0,10.3,1.7,12.6,2.9l3.1-11c-3.6-1.7-8.6-3.1-15.5-3.1
		c-14.2,0-23,7.9-23,18.2c0,8.8,6.7,14.4,16.7,18c7.3,2.5,10.2,4.7,10.2,8.5c0,4-3.3,6.6-9.6,6.6c-5.9,0-11.6-1.9-15.2-3.8L0,116.6"
		/>
</g>
</svg>
